<svg width="33" height="34" viewBox="0 0 33 34" fill="none" xmlns="http://www.w3.org/2000/svg">
<path d="M23.25 24.0003C23.25 24.7367 23.847 25.3337 24.5833 25.3337C25.3197 25.3337 25.9167 24.7367 25.9167 24.0003C25.9167 23.2639 25.3197 22.667 24.5833 22.667C23.847 22.667 23.25 23.2639 23.25 24.0003Z" fill="white"/>
<path d="M15.25 24.0003C15.25 24.7367 15.847 25.3337 16.5833 25.3337C17.3197 25.3337 17.9167 24.7367 17.9167 24.0003C17.9167 23.2639 17.3197 22.667 16.5833 22.667C15.847 22.667 15.25 23.2639 15.25 24.0003Z" fill="white"/>
<path d="M7.25 24.0003C7.25 24.7367 7.84695 25.3337 8.58333 25.3337C9.31971 25.3337 9.91667 24.7367 9.91667 24.0003C9.91667 23.2639 9.31971 22.667 8.58333 22.667C7.84695 22.667 7.25 23.2639 7.25 24.0003Z" fill="white"/>
<path d="M23.25 17.0003C23.25 17.7367 23.847 18.3337 24.5833 18.3337C25.3197 18.3337 25.9167 17.7367 25.9167 17.0003C25.9167 16.2639 25.3197 15.667 24.5833 15.667C23.847 15.667 23.25 16.2639 23.25 17.0003Z" fill="white"/>
<path d="M15.25 17.0003C15.25 17.7367 15.847 18.3337 16.5833 18.3337C17.3197 18.3337 17.9167 17.7367 17.9167 17.0003C17.9167 16.2639 17.3197 15.667 16.5833 15.667C15.847 15.667 15.25 16.2639 15.25 17.0003Z" fill="white"/>
<path d="M7.25 17.0003C7.25 17.7367 7.84695 18.3337 8.58333 18.3337C9.31971 18.3337 9.91667 17.7367 9.91667 17.0003C9.91667 16.2639 9.31971 15.667 8.58333 15.667C7.84695 15.667 7.25 16.2639 7.25 17.0003Z" fill="white"/>
<path d="M23.25 10.0003C23.25 10.7367 23.847 11.3337 24.5833 11.3337C25.3197 11.3337 25.9167 10.7367 25.9167 10.0003C25.9167 9.26395 25.3197 8.66699 24.5833 8.66699C23.847 8.66699 23.25 9.26395 23.25 10.0003Z" fill="white"/>
<path d="M15.25 10.0003C15.25 10.7367 15.847 11.3337 16.5833 11.3337C17.3197 11.3337 17.9167 10.7367 17.9167 10.0003C17.9167 9.26395 17.3197 8.66699 16.5833 8.66699C15.847 8.66699 15.25 9.26395 15.25 10.0003Z" fill="white"/>
<path d="M7.25 10.0003C7.25 10.7367 7.84695 11.3337 8.58333 11.3337C9.31971 11.3337 9.91667 10.7367 9.91667 10.0003C9.91667 9.26395 9.31971 8.66699 8.58333 8.66699C7.84695 8.66699 7.25 9.26395 7.25 10.0003Z" fill="white"/>
<path d="M23.25 24.0003C23.25 24.7367 23.847 25.3337 24.5833 25.3337C25.3197 25.3337 25.9167 24.7367 25.9167 24.0003C25.9167 23.2639 25.3197 22.667 24.5833 22.667C23.847 22.667 23.25 23.2639 23.25 24.0003Z" stroke="white" stroke-linecap="round" stroke-linejoin="round"/>
<path d="M15.25 24.0003C15.25 24.7367 15.847 25.3337 16.5833 25.3337C17.3197 25.3337 17.9167 24.7367 17.9167 24.0003C17.9167 23.2639 17.3197 22.667 16.5833 22.667C15.847 22.667 15.25 23.2639 15.25 24.0003Z" stroke="white" stroke-linecap="round" stroke-linejoin="round"/>
<path d="M7.25 24.0003C7.25 24.7367 7.84695 25.3337 8.58333 25.3337C9.31971 25.3337 9.91667 24.7367 9.91667 24.0003C9.91667 23.2639 9.31971 22.667 8.58333 22.667C7.84695 22.667 7.25 23.2639 7.25 24.0003Z" stroke="white" stroke-linecap="round" stroke-linejoin="round"/>
<path d="M23.25 17.0003C23.25 17.7367 23.847 18.3337 24.5833 18.3337C25.3197 18.3337 25.9167 17.7367 25.9167 17.0003C25.9167 16.2639 25.3197 15.667 24.5833 15.667C23.847 15.667 23.25 16.2639 23.25 17.0003Z" stroke="white" stroke-linecap="round" stroke-linejoin="round"/>
<path d="M15.25 17.0003C15.25 17.7367 15.847 18.3337 16.5833 18.3337C17.3197 18.3337 17.9167 17.7367 17.9167 17.0003C17.9167 16.2639 17.3197 15.667 16.5833 15.667C15.847 15.667 15.25 16.2639 15.25 17.0003Z" stroke="white" stroke-linecap="round" stroke-linejoin="round"/>
<path d="M7.25 17.0003C7.25 17.7367 7.84695 18.3337 8.58333 18.3337C9.31971 18.3337 9.91667 17.7367 9.91667 17.0003C9.91667 16.2639 9.31971 15.667 8.58333 15.667C7.84695 15.667 7.25 16.2639 7.25 17.0003Z" stroke="white" stroke-linecap="round" stroke-linejoin="round"/>
<path d="M23.25 10.0003C23.25 10.7367 23.847 11.3337 24.5833 11.3337C25.3197 11.3337 25.9167 10.7367 25.9167 10.0003C25.9167 9.26395 25.3197 8.66699 24.5833 8.66699C23.847 8.66699 23.25 9.26395 23.25 10.0003Z" stroke="white" stroke-linecap="round" stroke-linejoin="round"/>
<path d="M15.25 10.0003C15.25 10.7367 15.847 11.3337 16.5833 11.3337C17.3197 11.3337 17.9167 10.7367 17.9167 10.0003C17.9167 9.26395 17.3197 8.66699 16.5833 8.66699C15.847 8.66699 15.25 9.26395 15.25 10.0003Z" stroke="white" stroke-linecap="round" stroke-linejoin="round"/>
<path d="M7.25 10.0003C7.25 10.7367 7.84695 11.3337 8.58333 11.3337C9.31971 11.3337 9.91667 10.7367 9.91667 10.0003C9.91667 9.26395 9.31971 8.66699 8.58333 8.66699C7.84695 8.66699 7.25 9.26395 7.25 10.0003Z" stroke="white" stroke-linecap="round" stroke-linejoin="round"/>
</svg>
