<svg width="32" height="34" viewBox="0 0 32 34" fill="none" xmlns="http://www.w3.org/2000/svg">
<path d="M23 24.0003C23 24.7367 23.597 25.3337 24.3333 25.3337C25.0697 25.3337 25.6667 24.7367 25.6667 24.0003C25.6667 23.2639 25.0697 22.667 24.3333 22.667C23.597 22.667 23 23.2639 23 24.0003Z" fill="#929190"/>
<path d="M15 24.0003C15 24.7367 15.597 25.3337 16.3333 25.3337C17.0697 25.3337 17.6667 24.7367 17.6667 24.0003C17.6667 23.2639 17.0697 22.667 16.3333 22.667C15.597 22.667 15 23.2639 15 24.0003Z" fill="#929190"/>
<path d="M7 24.0003C7 24.7367 7.59695 25.3337 8.33333 25.3337C9.06971 25.3337 9.66667 24.7367 9.66667 24.0003C9.66667 23.2639 9.06971 22.667 8.33333 22.667C7.59695 22.667 7 23.2639 7 24.0003Z" fill="#929190"/>
<path d="M23 17.0003C23 17.7367 23.597 18.3337 24.3333 18.3337C25.0697 18.3337 25.6667 17.7367 25.6667 17.0003C25.6667 16.2639 25.0697 15.667 24.3333 15.667C23.597 15.667 23 16.2639 23 17.0003Z" fill="#929190"/>
<path d="M15 17.0003C15 17.7367 15.597 18.3337 16.3333 18.3337C17.0697 18.3337 17.6667 17.7367 17.6667 17.0003C17.6667 16.2639 17.0697 15.667 16.3333 15.667C15.597 15.667 15 16.2639 15 17.0003Z" fill="#929190"/>
<path d="M7 17.0003C7 17.7367 7.59695 18.3337 8.33333 18.3337C9.06971 18.3337 9.66667 17.7367 9.66667 17.0003C9.66667 16.2639 9.06971 15.667 8.33333 15.667C7.59695 15.667 7 16.2639 7 17.0003Z" fill="#929190"/>
<path d="M23 10.0003C23 10.7367 23.597 11.3337 24.3333 11.3337C25.0697 11.3337 25.6667 10.7367 25.6667 10.0003C25.6667 9.26395 25.0697 8.66699 24.3333 8.66699C23.597 8.66699 23 9.26395 23 10.0003Z" fill="#929190"/>
<path d="M15 10.0003C15 10.7367 15.597 11.3337 16.3333 11.3337C17.0697 11.3337 17.6667 10.7367 17.6667 10.0003C17.6667 9.26395 17.0697 8.66699 16.3333 8.66699C15.597 8.66699 15 9.26395 15 10.0003Z" fill="#929190"/>
<path d="M7 10.0003C7 10.7367 7.59695 11.3337 8.33333 11.3337C9.06971 11.3337 9.66667 10.7367 9.66667 10.0003C9.66667 9.26395 9.06971 8.66699 8.33333 8.66699C7.59695 8.66699 7 9.26395 7 10.0003Z" fill="#929190"/>
<path d="M23 24.0003C23 24.7367 23.597 25.3337 24.3333 25.3337C25.0697 25.3337 25.6667 24.7367 25.6667 24.0003C25.6667 23.2639 25.0697 22.667 24.3333 22.667C23.597 22.667 23 23.2639 23 24.0003Z" stroke="#929190" stroke-linecap="round" stroke-linejoin="round"/>
<path d="M15 24.0003C15 24.7367 15.597 25.3337 16.3333 25.3337C17.0697 25.3337 17.6667 24.7367 17.6667 24.0003C17.6667 23.2639 17.0697 22.667 16.3333 22.667C15.597 22.667 15 23.2639 15 24.0003Z" stroke="#929190" stroke-linecap="round" stroke-linejoin="round"/>
<path d="M7 24.0003C7 24.7367 7.59695 25.3337 8.33333 25.3337C9.06971 25.3337 9.66667 24.7367 9.66667 24.0003C9.66667 23.2639 9.06971 22.667 8.33333 22.667C7.59695 22.667 7 23.2639 7 24.0003Z" stroke="#929190" stroke-linecap="round" stroke-linejoin="round"/>
<path d="M23 17.0003C23 17.7367 23.597 18.3337 24.3333 18.3337C25.0697 18.3337 25.6667 17.7367 25.6667 17.0003C25.6667 16.2639 25.0697 15.667 24.3333 15.667C23.597 15.667 23 16.2639 23 17.0003Z" stroke="#929190" stroke-linecap="round" stroke-linejoin="round"/>
<path d="M15 17.0003C15 17.7367 15.597 18.3337 16.3333 18.3337C17.0697 18.3337 17.6667 17.7367 17.6667 17.0003C17.6667 16.2639 17.0697 15.667 16.3333 15.667C15.597 15.667 15 16.2639 15 17.0003Z" stroke="#929190" stroke-linecap="round" stroke-linejoin="round"/>
<path d="M7 17.0003C7 17.7367 7.59695 18.3337 8.33333 18.3337C9.06971 18.3337 9.66667 17.7367 9.66667 17.0003C9.66667 16.2639 9.06971 15.667 8.33333 15.667C7.59695 15.667 7 16.2639 7 17.0003Z" stroke="#929190" stroke-linecap="round" stroke-linejoin="round"/>
<path d="M23 10.0003C23 10.7367 23.597 11.3337 24.3333 11.3337C25.0697 11.3337 25.6667 10.7367 25.6667 10.0003C25.6667 9.26395 25.0697 8.66699 24.3333 8.66699C23.597 8.66699 23 9.26395 23 10.0003Z" stroke="#929190" stroke-linecap="round" stroke-linejoin="round"/>
<path d="M15 10.0003C15 10.7367 15.597 11.3337 16.3333 11.3337C17.0697 11.3337 17.6667 10.7367 17.6667 10.0003C17.6667 9.26395 17.0697 8.66699 16.3333 8.66699C15.597 8.66699 15 9.26395 15 10.0003Z" stroke="#929190" stroke-linecap="round" stroke-linejoin="round"/>
<path d="M7 10.0003C7 10.7367 7.59695 11.3337 8.33333 11.3337C9.06971 11.3337 9.66667 10.7367 9.66667 10.0003C9.66667 9.26395 9.06971 8.66699 8.33333 8.66699C7.59695 8.66699 7 9.26395 7 10.0003Z" stroke="#929190" stroke-linecap="round" stroke-linejoin="round"/>
</svg>
