<svg fill="none" height="34" viewBox="0 0 175 34" width="175" xmlns="http://www.w3.org/2000/svg" xmlns:xlink="http://www.w3.org/1999/xlink"><clipPath id="a"><path d="m0 0h175v34h-175z"/></clipPath><g clip-path="url(#a)"><path d="m38.8271 10.633v12.734c0 1.7583-1.4486 3.1836-3.2356 3.1836h-16.178c-4.7686 0-7.2053-5.1182-4.0432-8.2291l-.2675-.2633-8.63162 8.4924h-3.23559c-1.78702 0-3.23559-1.4253-3.23559-3.1836v-12.734c0-1.7583 1.44857-3.18356 3.23559-3.18356h9.70681c4.7627 0 7.2027 5.11746 4.0402 8.22816l.2692.2648 8.6329-8.49296h9.7068c1.787 0 3.2356 1.42526 3.2356 3.18356zm26.3231.4457v-3.62926h-15.8803v3.97306l9.987-.0764-10.7247 11.5752v3.6293h17.1616v-3.9349l-11.3149.0382zm35.5668-4.08769c-3.1061 0-5.2804 1.37528-6.1734 3.62919h-.5048c-.5436-2.44492-2.6402-3.62919-5.3581-3.62919-2.5626 0-5.0864.99326-6.0571 3.36179v-2.90336h-5.2416v19.10116h5.3193v-11.5753c0-2.7888 1.5919-3.8966 3.3003-3.8966h.233c1.6695 0 3.2614.764 3.2614 3.4382v12.0337h5.319l-.0388-11.6135c0-2.7506 1.6307-3.8584 3.3391-3.8584h.233c1.6697 0 3.2617.8022 3.2617 3.4v12.0719h5.319v-13.1034c0-5.04271-3.3-6.45619-6.212-6.45619zm29.237 9.97079c0 6.1506-3.533 10.0472-8.27 10.0472-3.416 0-5.513-1.6427-6.251-3.4v10.391h-5.319v-26.55056h5.319v3.09436c.777-1.83369 2.99-3.55279 6.251-3.55279 4.698 0 8.27 3.82019 8.27 9.97079zm-5.513 0c0-3.591-1.437-6.0742-4.504-6.0742h-.194c-3.107 0-4.543 2.4832-4.543 6.0742s1.437 6.1506 4.543 6.1506h.194c3.029 0 4.504-2.5596 4.504-6.1506zm8.051 9.5888h5.319v-26.5506h-5.319zm21.873-6.418h5.242c-.932 4.2022-4.427 6.9146-9.513 6.8764-6.096-.0382-9.746-4.0494-9.746-9.9708 0-6.227 3.922-10.04719 9.63-10.04719 5.707 0 9.512 3.74379 9.512 9.97079v1.0697h-13.861v.191c.078 2.8651 1.864 4.9663 4.504 4.9663h.155c2.291 0 3.611-1.4135 4.077-3.0562zm-8.658-5.2719h8.503c-.194-2.3686-1.67-4.3169-4.155-4.3169h-.233c-2.523 0-3.921 2.0247-4.115 4.3169zm28.322-7.52587c-3.028 0-5.086.80225-6.251 3.93487v-3.82026h-5.203v19.10116h5.32v-9.5124c0-3.209 2.368-4.4697 5.008-4.4697.816 0 1.359.0764 2.097.2293v-5.42477c-.155 0-.582-.0382-.971-.0382zm-105.4129 11.14297v8.0718h5.3184v-13.3046c-2.9373 0-5.3184 2.3428-5.3184 5.2328zm0-5.7966h5.3184v-5.23272h-5.3184z" fill="#252422"/></g></svg>